<svg width="21" height="19" viewBox="0 0 21 19" fill="none" xmlns="http://www.w3.org/2000/svg">
<path d="M14.2562 17.7684V3.36836C14.2562 2.89097 14.0666 2.43313 13.729 2.09557C13.3915 1.758 12.9336 1.56836 12.4562 1.56836H8.85625C8.37886 1.56836 7.92102 1.758 7.58346 2.09557C7.24589 2.43313 7.05625 2.89097 7.05625 3.36836V17.7684M3.45625 5.16836H17.8562C18.8504 5.16836 19.6562 5.97425 19.6562 6.96836V15.9684C19.6562 16.9625 18.8504 17.7684 17.8562 17.7684H3.45625C2.46214 17.7684 1.65625 16.9625 1.65625 15.9684V6.96836C1.65625 5.97425 2.46214 5.16836 3.45625 5.16836Z" stroke="#504F4F" stroke-width="2" stroke-linecap="round" stroke-linejoin="round"/>
</svg>
