<svg width="17" height="16" viewBox="0 0 17 16" fill="none" xmlns="http://www.w3.org/2000/svg">
<path d="M5.16667 4.3431V2.67643C5.16667 2.2344 5.34226 1.81048 5.65482 1.49792C5.96738 1.18536 6.39131 1.00977 6.83333 1.00977H10.1667C10.6087 1.00977 11.0326 1.18536 11.3452 1.49792C11.6577 1.81048 11.8333 2.2344 11.8333 2.67643V4.3431M8.5 8.50977V8.5181M1 9.3431C3.32632 10.5153 5.89502 11.126 8.5 11.126C11.105 11.126 13.6737 10.5153 16 9.3431M1 6.00977C1 5.56774 1.17559 5.14382 1.48816 4.83125C1.80072 4.51869 2.22464 4.3431 2.66667 4.3431H14.3333C14.7754 4.3431 15.1993 4.51869 15.5118 4.83125C15.8244 5.14382 16 5.56774 16 6.00977V13.5098C16 13.9518 15.8244 14.3757 15.5118 14.6883C15.1993 15.0008 14.7754 15.1764 14.3333 15.1764H2.66667C2.22464 15.1764 1.80072 15.0008 1.48816 14.6883C1.17559 14.3757 1 13.9518 1 13.5098V6.00977Z" stroke="#FF8600" stroke-linecap="round" stroke-linejoin="round"/>
</svg>
