<svg width="26" height="27" viewBox="0 0 26 27" fill="none" xmlns="http://www.w3.org/2000/svg">
<path d="M22.2132 12.712L16.6648 10.6756C17.0985 10.0115 17.3483 9.22517 17.3483 8.38043C17.3483 6.83964 16.5138 5.48938 15.2593 4.72835C15.2684 4.70082 15.2752 4.67328 15.2809 4.64465C15.4046 4.02348 15.7282 3.16994 16.5309 2.27123C17.1519 1.57518 16.0631 0.513477 15.3717 1.16768C14.8074 1.70073 13.9662 2.72389 13.8277 4.16886C13.5313 4.10829 13.2248 4.07635 12.9103 4.07635C12.5958 4.07635 12.2927 4.10829 11.9975 4.16776C11.859 2.72389 11.0177 1.70073 10.4535 1.16768C9.76204 0.513477 8.67326 1.57628 9.29428 2.27123C10.097 3.16994 10.4205 4.02348 10.5443 4.64465C10.55 4.67218 10.5568 4.69971 10.5659 4.72615C9.30904 5.48608 8.47231 6.83854 8.47231 8.38153C8.47231 9.23948 8.73003 10.038 9.17621 10.7087C9.17394 10.7186 9.17167 10.7285 9.1694 10.7384L3.78794 12.7131C1.35947 13.6041 -0.209558 15.9467 0.0311315 18.4545C0.0379435 18.5195 0.0447556 18.5867 0.0538382 18.6527C0.530677 22.3962 3.95142 23.1683 3.95142 23.1683C3.95142 23.1683 8.13284 23.9954 10.0425 20.5933C10.7906 22.3324 11.6955 23.6231 12.2904 24.3666C12.2836 24.774 12.3109 26.1331 12.9137 26.9492C12.9137 26.9492 13.5824 26.186 13.6097 24.3654C14.6667 23.1562 15.4217 21.8687 15.9496 20.5801C17.8558 23.9976 22.0486 23.1683 22.0486 23.1683C22.0486 23.1683 25.4693 22.3962 25.9462 18.6527C25.9552 18.5867 25.9621 18.5195 25.9689 18.4545C26.2096 15.9467 24.6405 13.6041 22.2121 12.7131L22.2132 12.712ZM12.9103 12.6856C13.7028 12.6856 14.4475 12.4841 15.0913 12.1305H15.2071C15.2071 12.1305 15.4762 13.1096 15.5511 14.5612H10.2661C10.3047 13.7914 10.4194 12.9797 10.6328 12.1305H10.7293C11.3731 12.4841 12.1178 12.6856 12.9103 12.6856ZM10.2809 16.0282H15.5511C15.5193 16.6384 15.4432 17.2893 15.3024 17.9578H10.5806C10.4364 17.3609 10.3297 16.7166 10.2797 16.0282H10.2809ZM14.8903 19.4237C14.485 20.5493 13.8606 21.6782 12.9205 22.7035C12.9205 22.7035 11.8227 21.5019 11.0347 19.4237H14.8903ZM12.9103 5.49048C14.5554 5.49048 15.8894 6.78457 15.8894 8.38043C15.8894 9.00049 15.6873 9.5765 15.3433 10.0468C14.804 10.7869 13.9151 11.2704 12.9103 11.2704C11.9055 11.2704 11.0166 10.7869 10.4784 10.0468C10.1333 9.5765 9.93234 9.00049 9.93234 8.38043C9.93234 6.78457 11.2652 5.49048 12.9103 5.49048ZM8.3338 20.4259C7.39828 21.4403 5.7793 21.8588 4.4135 21.5504C4.41237 21.5504 1.9873 21.0019 1.64898 18.3477C1.64216 18.3003 1.63762 18.2529 1.63308 18.2067C1.46278 16.428 2.5754 14.7661 4.2977 14.1339L8.23389 12.6889C8.3724 12.6361 8.61195 12.5149 8.86967 12.4147C8.56767 14.8189 8.85037 16.96 9.38397 18.7673C9.11604 19.3686 8.76863 19.9545 8.33493 20.4259H8.3338ZM24.3692 18.2067C24.3646 18.2529 24.359 18.3003 24.3533 18.3477C24.015 21.0019 21.5899 21.5504 21.5888 21.5504C20.223 21.8588 18.604 21.4403 17.6685 20.4259C17.2121 19.9314 16.851 19.3091 16.5774 18.6759C17.1973 16.2474 17.136 13.9566 16.9441 12.3464C17.2688 12.4532 17.5958 12.6239 17.7684 12.69L21.7046 14.135C23.4269 14.7672 24.5406 16.4291 24.3692 18.2078V18.2067ZM16.6989 10.8342C16.6989 10.8342 16.7012 10.8442 16.7023 10.8486C16.7023 10.8442 16.7 10.8386 16.6989 10.8342Z" fill="#FF8600"/>
</svg>
