<svg width="21" height="22" viewBox="0 0 21 22" fill="none" xmlns="http://www.w3.org/2000/svg">
<path d="M7.15625 16.625V17.75C7.15625 18.6451 7.51183 19.5036 8.14476 20.1365C8.7777 20.7694 9.63614 21.125 10.5312 21.125C11.4264 21.125 12.2848 20.7694 12.9177 20.1365C13.5507 19.5036 13.9062 18.6451 13.9062 17.75V16.625M8.28125 3.125C8.28125 2.52826 8.5183 1.95597 8.94026 1.53401C9.36222 1.11205 9.93451 0.875 10.5312 0.875C11.128 0.875 11.7003 1.11205 12.1222 1.53401C12.5442 1.95597 12.7813 2.52826 12.7812 3.125C14.0732 3.73591 15.1746 4.68687 15.9673 5.87596C16.76 7.06506 17.2142 8.44746 17.2812 9.875V13.25C17.3659 13.9494 17.6136 14.6192 18.0044 15.2054C18.3952 15.7916 18.9182 16.2778 19.5312 16.625H1.53125C2.14431 16.2778 2.66729 15.7916 3.05809 15.2054C3.44889 14.6192 3.69659 13.9494 3.78125 13.25V9.875C3.84826 8.44746 4.30246 7.06506 5.09519 5.87596C5.88792 4.68687 6.98929 3.73591 8.28125 3.125Z" stroke="white" stroke-width="1.5" stroke-linecap="round" stroke-linejoin="round"/>
</svg>
