<svg width="21" height="22" viewBox="0 0 21 22" fill="none" xmlns="http://www.w3.org/2000/svg">
<path d="M18.7089 6.40486V4.98381C18.7089 4.48129 18.5093 3.99936 18.1539 3.64403C17.7986 3.2887 17.3167 3.08907 16.8141 3.08907H3.55099C3.04847 3.08907 2.56654 3.2887 2.21121 3.64403C1.85587 3.99936 1.65625 4.48129 1.65625 4.98381V18.247C1.65625 18.7495 1.85587 19.2314 2.21121 19.5867C2.56654 19.9421 3.04847 20.1417 3.55099 20.1417H6.86678M13.972 1.19434V4.98381M6.39309 1.19434V4.98381M1.65625 8.77328H6.39309M15.3931 15.8785L13.972 14.6943V12.5628M19.6563 14.4575C19.6563 15.965 19.0574 17.4108 17.9914 18.4768C16.9254 19.5428 15.4796 20.1417 13.972 20.1417C12.4645 20.1417 11.0187 19.5428 9.9527 18.4768C8.8867 17.4108 8.28783 15.965 8.28783 14.4575C8.28783 12.9499 8.8867 11.5041 9.9527 10.4382C11.0187 9.37215 12.4645 8.77328 13.972 8.77328C15.4796 8.77328 16.9254 9.37215 17.9914 10.4382C19.0574 11.5041 19.6563 12.9499 19.6563 14.4575Z" stroke="#504F4F" stroke-width="2" stroke-linecap="round" stroke-linejoin="round"/>
</svg>
