<svg width="23" height="15" viewBox="0 0 23 15" fill="none" xmlns="http://www.w3.org/2000/svg">
<path d="M5.65625 7.66797H5.66625M17.6562 7.66797H17.6663M3.65625 1.66797H19.6562C20.7608 1.66797 21.6562 2.5634 21.6562 3.66797V11.668C21.6562 12.7725 20.7608 13.668 19.6562 13.668H3.65625C2.55168 13.668 1.65625 12.7725 1.65625 11.668V3.66797C1.65625 2.5634 2.55168 1.66797 3.65625 1.66797ZM13.6562 7.66797C13.6562 8.77254 12.7608 9.66797 11.6562 9.66797C10.5517 9.66797 9.65625 8.77254 9.65625 7.66797C9.65625 6.5634 10.5517 5.66797 11.6562 5.66797C12.7608 5.66797 13.6562 6.5634 13.6562 7.66797Z" stroke="#504F4F" stroke-width="2" stroke-linecap="round" stroke-linejoin="round"/>
</svg>
