<svg width="26" height="26" viewBox="0 0 26 26" fill="none" xmlns="http://www.w3.org/2000/svg">
<path d="M7.66667 8.33317H18.3333M7.66667 13.6665H15.6667M21 1.6665C22.0609 1.6665 23.0783 2.08793 23.8284 2.83808C24.5786 3.58822 25 4.60564 25 5.6665V16.3332C25 17.394 24.5786 18.4115 23.8284 19.1616C23.0783 19.9117 22.0609 20.3332 21 20.3332H14.3333L7.66667 24.3332V20.3332H5C3.93913 20.3332 2.92172 19.9117 2.17157 19.1616C1.42143 18.4115 1 17.394 1 16.3332V5.6665C1 4.60564 1.42143 3.58822 2.17157 2.83808C2.92172 2.08793 3.93913 1.6665 5 1.6665H21Z" stroke="white" stroke-width="2" stroke-linecap="round" stroke-linejoin="round"/>
</svg>
