<svg width="17" height="16" viewBox="0 0 17 16" fill="none" xmlns="http://www.w3.org/2000/svg">
<path d="M6.94444 10.5745L8.5 8.24121V4.35232M1.5 8.24121C1.5 9.16046 1.68106 10.0707 2.03284 10.92C2.38463 11.7693 2.90024 12.5409 3.55025 13.191C4.20026 13.841 4.97194 14.3566 5.82122 14.7084C6.6705 15.0602 7.58075 15.2412 8.5 15.2412C9.41925 15.2412 10.3295 15.0602 11.1788 14.7084C12.0281 14.3566 12.7997 13.841 13.4497 13.191C14.0998 12.5409 14.6154 11.7693 14.9672 10.92C15.3189 10.0707 15.5 9.16046 15.5 8.24121C15.5 7.32196 15.3189 6.41171 14.9672 5.56243C14.6154 4.71315 14.0998 3.94147 13.4497 3.29146C12.7997 2.64145 12.0281 2.12584 11.1788 1.77405C10.3295 1.42227 9.41925 1.24121 8.5 1.24121C7.58075 1.24121 6.6705 1.42227 5.82122 1.77405C4.97194 2.12584 4.20026 2.64145 3.55025 3.29146C2.90024 3.94147 2.38463 4.71315 2.03284 5.56243C1.68106 6.41171 1.5 7.32196 1.5 8.24121Z" stroke="#FF8600" stroke-width="1.5" stroke-linecap="round" stroke-linejoin="round"/>
</svg>
