<svg width="17" height="17" viewBox="0 0 17 17" fill="none" xmlns="http://www.w3.org/2000/svg">
<path d="M6 10.3991C6 11.7799 8.23833 12.8991 11 12.8991C13.7617 12.8991 16 11.7799 16 10.3991M6 10.3991C6 9.01826 8.23833 7.89909 11 7.89909C13.7617 7.89909 16 9.01826 16 10.3991M6 10.3991V13.7324C6 15.1124 8.23833 16.2324 11 16.2324C13.7617 16.2324 16 15.1124 16 13.7324V10.3991M1 3.73242C1 4.62576 1.95333 5.45075 3.5 5.89742C5.04667 6.34409 6.95333 6.34409 8.5 5.89742C10.0467 5.45075 11 4.62576 11 3.73242C11 2.83909 10.0467 2.01409 8.5 1.56742C6.95333 1.12076 5.04667 1.12076 3.5 1.56742C1.95333 2.01409 1 2.83909 1 3.73242ZM1 3.73242V12.0658C1 12.8058 1.64333 13.2741 2.66667 13.7324M1 7.89909C1 8.63909 1.64333 9.10742 2.66667 9.56576" stroke="#FF8600" stroke-linecap="round" stroke-linejoin="round"/>
</svg>
