<svg width="21" height="24" viewBox="0 0 21 24" fill="none" xmlns="http://www.w3.org/2000/svg">
<path d="M1.92041 21.2538V19.0045C1.92041 17.8114 2.39436 16.6672 3.23801 15.8235C4.08165 14.9799 5.22588 14.5059 6.41897 14.5059H10.3552M4.16969 5.50882C4.16969 6.70191 4.64365 7.84614 5.48729 8.68978C6.33093 9.53343 7.47516 10.0074 8.66826 10.0074C9.86135 10.0074 11.0056 9.53343 11.8492 8.68978C12.6929 7.84614 13.1668 6.70191 13.1668 5.50882C13.1668 4.31572 12.6929 3.1715 11.8492 2.32785C11.0056 1.48421 9.86135 1.01025 8.66826 1.01025C7.47516 1.01025 6.33093 1.48421 5.48729 2.32785C4.64365 3.1715 4.16969 4.31572 4.16969 5.50882ZM15.8885 15.192C16.1078 14.9726 16.3681 14.7987 16.6547 14.68C16.9413 14.5613 17.2484 14.5002 17.5585 14.5002C17.8687 14.5002 18.1758 14.5613 18.4624 14.68C18.7489 14.7987 19.0093 14.9726 19.2286 15.192C19.448 15.4113 19.6219 15.6716 19.7406 15.9582C19.8593 16.2448 19.9204 16.5519 19.9204 16.862C19.9204 17.1722 19.8593 17.4793 19.7406 17.7659C19.6219 18.0524 19.448 18.3128 19.2286 18.5321L15.4161 22.3784H12.0422V19.0045L15.8885 15.192Z" stroke="#FF8600" stroke-width="2" stroke-linecap="round" stroke-linejoin="round"/>
</svg>
