<svg width="25" height="25" viewBox="0 0 25 25" fill="none" xmlns="http://www.w3.org/2000/svg">
<g clip-path="url(#clip0_591_692)">
<path d="M12.9294 22.1647H3.95925C3.40908 22.1647 2.9626 21.7182 2.9626 21.1681V3.22786C2.9626 2.67768 3.40913 2.2312 3.95925 2.2312H12.9294C13.4806 2.2312 13.9261 1.7857 13.9261 1.23454C13.9261 0.683387 13.4806 0.237793 12.9294 0.237793H3.95925C2.31075 0.237793 0.969238 1.57936 0.969238 3.22786V21.168C0.969238 22.8165 2.31075 24.1581 3.95925 24.1581H12.9294C13.4806 24.1581 13.9261 23.7126 13.9261 23.1614C13.9261 22.6102 13.4806 22.1647 12.9294 22.1647Z" fill="#FF8600"/>
<path d="M24.6724 11.4882L18.6126 5.50813C18.2219 5.12141 17.59 5.12643 17.2033 5.51811C16.8166 5.9098 16.8206 6.54069 17.2133 6.92741L21.5439 11.2011H9.93953C9.38837 11.2011 8.94287 11.6466 8.94287 12.1978C8.94287 12.749 9.38837 13.1945 9.93953 13.1945H21.5439L17.2133 17.4682C16.8206 17.855 16.8176 18.4858 17.2033 18.8775C17.3987 19.0749 17.6558 19.1745 17.913 19.1745C18.1661 19.1745 18.4193 19.0789 18.6126 18.8875L24.6724 12.9074C24.8618 12.72 24.9694 12.4648 24.9694 12.1978C24.9694 11.9308 24.8628 11.6766 24.6724 11.4882Z" fill="#FF8600"/>
</g>
<defs>
<clipPath id="clip0_591_692">
<rect width="24" height="24" fill="white" transform="translate(0.969238 0.197754)"/>
</clipPath>
</defs>
</svg>
