<svg width="20" height="19" viewBox="0 0 20 19" fill="none" xmlns="http://www.w3.org/2000/svg">
<path d="M13.6 17.4031V3.00313C13.6 2.52574 13.4104 2.0679 13.0728 1.73033C12.7352 1.39277 12.2774 1.20313 11.8 1.20312H8.2C7.72261 1.20313 7.26477 1.39277 6.92721 1.73033C6.58964 2.0679 6.4 2.52574 6.4 3.00313V17.4031M2.8 4.80313H17.2C18.1941 4.80313 19 5.60901 19 6.60313V15.6031C19 16.5972 18.1941 17.4031 17.2 17.4031H2.8C1.80589 17.4031 1 16.5972 1 15.6031V6.60313C1 5.60901 1.80589 4.80313 2.8 4.80313Z" stroke="#4C4C4C" stroke-width="2" stroke-linecap="round" stroke-linejoin="round"/>
</svg>
