<svg width="20" height="20" viewBox="0 0 20 20" fill="none" xmlns="http://www.w3.org/2000/svg">
<path d="M10 3.375C10 3.97174 10.2371 4.54403 10.659 4.96599C11.081 5.38795 11.6533 5.625 12.25 5.625C12.8467 5.625 13.419 5.38795 13.841 4.96599C14.2629 4.54403 14.5 3.97174 14.5 3.375M10 3.375C10 2.77826 10.2371 2.20597 10.659 1.78401C11.081 1.36205 11.6533 1.125 12.25 1.125C12.8467 1.125 13.419 1.36205 13.841 1.78401C14.2629 2.20597 14.5 2.77826 14.5 3.375M10 3.375H1M14.5 3.375H19M3.25 10.125C3.25 10.7217 3.48705 11.294 3.90901 11.716C4.33097 12.1379 4.90326 12.375 5.5 12.375C6.09674 12.375 6.66903 12.1379 7.09099 11.716C7.51295 11.294 7.75 10.7217 7.75 10.125M3.25 10.125C3.25 9.52826 3.48705 8.95597 3.90901 8.53401C4.33097 8.11205 4.90326 7.875 5.5 7.875C6.09674 7.875 6.66903 8.11205 7.09099 8.53401C7.51295 8.95597 7.75 9.52826 7.75 10.125M3.25 10.125H1M7.75 10.125H19M13.375 16.875C13.375 17.4717 13.6121 18.044 14.034 18.466C14.456 18.8879 15.0283 19.125 15.625 19.125C16.2217 19.125 16.794 18.8879 17.216 18.466C17.6379 18.044 17.875 17.4717 17.875 16.875M13.375 16.875C13.375 16.2783 13.6121 15.706 14.034 15.284C14.456 14.8621 15.0283 14.625 15.625 14.625C16.2217 14.625 16.794 14.8621 17.216 15.284C17.6379 15.706 17.875 16.2783 17.875 16.875M13.375 16.875H1M17.875 16.875H19" stroke="white" stroke-width="1.5" stroke-linecap="round" stroke-linejoin="round"/>
</svg>
