<svg width="22" height="26" viewBox="0 0 22 26" fill="none" xmlns="http://www.w3.org/2000/svg">
<path d="M1 23.6251V21.1251C1 19.799 1.52679 18.5272 2.46447 17.5895C3.40216 16.6518 4.67393 16.125 6.00002 16.125H7.87502M18.75 22.6251L21 24.8751M3.50001 6.12502C3.50001 7.4511 4.02679 8.72288 4.96448 9.66056C5.90216 10.5982 7.17394 11.125 8.50002 11.125C9.82611 11.125 11.0979 10.5982 12.0356 9.66056C12.9733 8.72288 13.5 7.4511 13.5 6.12502C13.5 4.79893 12.9733 3.52716 12.0356 2.58947C11.0979 1.65179 9.82611 1.125 8.50002 1.125C7.17394 1.125 5.90216 1.65179 4.96448 2.58947C4.02679 3.52716 3.50001 4.79893 3.50001 6.12502ZM12.25 19.8751C12.25 20.8696 12.6451 21.8235 13.3484 22.5267C14.0517 23.23 15.0055 23.6251 16 23.6251C16.9946 23.6251 17.9484 23.23 18.6517 22.5267C19.355 21.8235 19.7501 20.8696 19.7501 19.8751C19.7501 18.8805 19.355 17.9267 18.6517 17.2234C17.9484 16.5201 16.9946 16.125 16 16.125C15.0055 16.125 14.0517 16.5201 13.3484 17.2234C12.6451 17.9267 12.25 18.8805 12.25 19.8751Z" stroke="white" stroke-width="2" stroke-linecap="round" stroke-linejoin="round"/>
</svg>
