<svg width="21" height="24" viewBox="0 0 21 24" fill="none" xmlns="http://www.w3.org/2000/svg">
<path d="M1.92041 21.2603V19.0103C1.92041 17.8168 2.39452 16.6722 3.23843 15.8283C4.08234 14.9844 5.22694 14.5103 6.42041 14.5103H10.3579M14.2954 21.2603L18.7954 16.7603M4.17041 5.51025C4.17041 6.70373 4.64452 7.84832 5.48843 8.69223C6.33234 9.53615 7.47694 10.0103 8.67041 10.0103C9.86388 10.0103 11.0085 9.53615 11.8524 8.69223C12.6963 7.84832 13.1704 6.70373 13.1704 5.51025C13.1704 4.31678 12.6963 3.17219 11.8524 2.32827C11.0085 1.48436 9.86388 1.01025 8.67041 1.01025C7.47694 1.01025 6.33234 1.48436 5.48843 2.32827C4.64452 3.17219 4.17041 4.31678 4.17041 5.51025ZM13.1704 19.0103C13.1704 19.9054 13.526 20.7638 14.1589 21.3967C14.7919 22.0297 15.6503 22.3853 16.5454 22.3853C17.4405 22.3853 18.299 22.0297 18.9319 21.3967C19.5648 20.7638 19.9204 19.9054 19.9204 19.0103C19.9204 18.1151 19.5648 17.2567 18.9319 16.6238C18.299 15.9908 17.4405 15.6353 16.5454 15.6353C15.6503 15.6353 14.7919 15.9908 14.1589 16.6238C13.526 17.2567 13.1704 18.1151 13.1704 19.0103Z" stroke="#FF8600" stroke-width="2" stroke-linecap="round" stroke-linejoin="round"/>
</svg>
