<svg width="21" height="20" viewBox="0 0 21 20" fill="none" xmlns="http://www.w3.org/2000/svg">
<path d="M8.65625 4.16797H2.65625C2.39103 4.16797 2.13668 4.27333 1.94914 4.46086C1.76161 4.6484 1.65625 4.90275 1.65625 5.16797V17.168C1.65625 17.4332 1.76161 17.6875 1.94914 17.8751C2.13668 18.0626 2.39103 18.168 2.65625 18.168H18.6562C18.9215 18.168 19.1758 18.0626 19.3634 17.8751C19.5509 17.6875 19.6562 17.4332 19.6562 17.168V5.16797C19.6562 4.90275 19.5509 4.6484 19.3634 4.46086C19.1758 4.27333 18.9215 4.16797 18.6562 4.16797H12.6562M12.6562 14.168H14.6562M12.6562 10.168H16.6562M5.65625 10.168H8.65625V14.168H5.65625V10.168ZM8.65625 2.16797C8.65625 1.90275 8.76161 1.6484 8.94914 1.46086C9.13668 1.27333 9.39103 1.16797 9.65625 1.16797H11.6562C11.9215 1.16797 12.1758 1.27333 12.3634 1.46086C12.5509 1.6484 12.6562 1.90275 12.6562 2.16797V5.16797C12.6562 5.43319 12.5509 5.68754 12.3634 5.87508C12.1758 6.06261 11.9215 6.16797 11.6562 6.16797H9.65625C9.39103 6.16797 9.13668 6.06261 8.94914 5.87508C8.76161 5.68754 8.65625 5.43319 8.65625 5.16797V2.16797Z" stroke="#504F4F" stroke-width="2" stroke-linecap="round" stroke-linejoin="round"/>
</svg>
