<svg width="15" height="16" viewBox="0 0 15 16" fill="none" xmlns="http://www.w3.org/2000/svg">
<path d="M5.25 6.99099C5.25 7.58773 5.48705 8.16003 5.90901 8.58198C6.33097 9.00394 6.90326 9.24099 7.5 9.24099C8.09674 9.24099 8.66903 9.00394 9.09099 8.58198C9.51295 8.16003 9.75 7.58773 9.75 6.99099C9.75 6.39426 9.51295 5.82196 9.09099 5.4C8.66903 4.97805 8.09674 4.74099 7.5 4.74099C6.90326 4.74099 6.33097 4.97805 5.90901 5.4C5.48705 5.82196 5.25 6.39426 5.25 6.99099Z" stroke="#FF8600" stroke-width="1.5" stroke-linecap="round" stroke-linejoin="round"/>
<path d="M11.7428 11.2337L8.5605 14.416C8.27924 14.697 7.89794 14.8548 7.50038 14.8548C7.10282 14.8548 6.72151 14.697 6.44025 14.416L3.25725 11.2337C2.41817 10.3946 1.84675 9.32552 1.61527 8.16164C1.38378 6.99776 1.50262 5.79138 1.95676 4.69504C2.41089 3.5987 3.17993 2.66165 4.16661 2.00237C5.1533 1.3431 6.31333 0.991211 7.5 0.991211C8.68668 0.991211 9.84671 1.3431 10.8334 2.00237C11.8201 2.66165 12.5891 3.5987 13.0433 4.69504C13.4974 5.79138 13.6162 6.99776 13.3847 8.16164C13.1533 9.32552 12.5818 10.3946 11.7428 11.2337Z" stroke="#FF8600" stroke-width="1.5" stroke-linecap="round" stroke-linejoin="round"/>
</svg>
