<svg width="16" height="17" viewBox="0 0 16 17" fill="none" xmlns="http://www.w3.org/2000/svg">
<path d="M9.55533 7.45422C9.55523 7.02327 9.43578 6.60077 9.21022 6.23356C8.98467 5.86635 8.66183 5.56877 8.27748 5.37383C7.89314 5.1789 7.46232 5.09421 7.03279 5.12916C6.60326 5.16411 6.1918 5.31733 5.84403 5.57184C5.49626 5.82635 5.22577 6.1722 5.06255 6.57105C4.89932 6.96989 4.84975 7.40615 4.91932 7.83145C4.98889 8.25675 5.17488 8.65447 5.45668 8.98052C5.73848 9.30657 6.10507 9.54821 6.51581 9.67864M6.49015 15.4264C6.35504 15.3542 6.23134 15.2625 6.12304 15.1541L2.82219 11.8541C2.10853 11.1403 1.57921 10.2637 1.27989 9.29977C0.980577 8.33585 0.920246 7.31359 1.1041 6.32115C1.28796 5.32871 1.71049 4.3959 2.33524 3.60318C2.95999 2.81045 3.76821 2.1816 4.69019 1.77088C5.61217 1.36016 6.62022 1.1799 7.6274 1.24563C8.63458 1.31137 9.61065 1.62114 10.4714 2.14821C11.3322 2.67529 12.0518 3.40385 12.5682 4.27106C13.0846 5.13827 13.3823 6.11809 13.4356 7.126M11.7331 15.0896L10.0438 15.9747C9.99363 16.0008 9.93723 16.0124 9.88087 16.0083C9.8245 16.0042 9.77038 15.9845 9.72456 15.9514C9.67874 15.9184 9.64301 15.8732 9.62136 15.821C9.59972 15.7688 9.59301 15.7116 9.60199 15.6558L9.92477 13.7806L8.55823 12.4529C8.51744 12.4135 8.48856 12.3634 8.47488 12.3083C8.46121 12.2533 8.46329 12.1955 8.48089 12.1416C8.49848 12.0876 8.53089 12.0397 8.57441 12.0033C8.61793 11.9669 8.67081 11.9435 8.727 11.9357L10.6154 11.662L11.4601 9.95631C11.4853 9.90551 11.5243 9.86276 11.5725 9.83288C11.6207 9.803 11.6763 9.78717 11.7331 9.78717C11.7898 9.78717 11.8454 9.803 11.8937 9.83288C11.9419 9.86276 11.9808 9.90551 12.0061 9.95631L12.8507 11.662L14.7392 11.9357C14.7952 11.9438 14.8478 11.9674 14.8912 12.0038C14.9345 12.0402 14.9668 12.0881 14.9843 12.1419C15.0019 12.1957 15.004 12.2533 14.9905 12.3083C14.977 12.3633 14.9484 12.4134 14.9079 12.4529L13.5414 13.7806L13.8634 15.655C13.8731 15.7109 13.8668 15.7684 13.8455 15.8209C13.8241 15.8735 13.7884 15.919 13.7425 15.9523C13.6966 15.9856 13.6422 16.0053 13.5857 16.0093C13.5291 16.0132 13.4725 16.0013 13.4224 15.9747L11.7331 15.0896Z" stroke="#FF8600" stroke-linecap="round" stroke-linejoin="round"/>
</svg>
