<svg width="16" height="21" viewBox="0 0 16 21" fill="none" xmlns="http://www.w3.org/2000/svg">
<path d="M4 9.69775V5.69775C4 4.63689 4.42143 3.61947 5.17157 2.86933C5.92172 2.11918 6.93913 1.69775 8 1.69775C9.06087 1.69775 10.0783 2.11918 10.8284 2.86933C11.5786 3.61947 12 4.63689 12 5.69775V9.69775M1 11.6978C1 11.1673 1.21071 10.6586 1.58579 10.2835C1.96086 9.90847 2.46957 9.69775 3 9.69775H13C13.5304 9.69775 14.0391 9.90847 14.4142 10.2835C14.7893 10.6586 15 11.1673 15 11.6978V17.6978C15 18.2282 14.7893 18.7369 14.4142 19.112C14.0391 19.487 13.5304 19.6978 13 19.6978H3C2.46957 19.6978 1.96086 19.487 1.58579 19.112C1.21071 18.7369 1 18.2282 1 17.6978V11.6978ZM7 14.6978C7 14.963 7.10536 15.2173 7.29289 15.4049C7.48043 15.5924 7.73478 15.6978 8 15.6978C8.26522 15.6978 8.51957 15.5924 8.70711 15.4049C8.89464 15.2173 9 14.963 9 14.6978C9 14.4325 8.89464 14.1782 8.70711 13.9906C8.51957 13.8031 8.26522 13.6978 8 13.6978C7.73478 13.6978 7.48043 13.8031 7.29289 13.9906C7.10536 14.1782 7 14.4325 7 14.6978Z" stroke="#4C4C4C" stroke-width="2" stroke-linecap="round" stroke-linejoin="round"/>
</svg>
