<svg width="17" height="22" viewBox="0 0 17 22" fill="none" xmlns="http://www.w3.org/2000/svg">
<path d="M1 19.1929V17.1929C1 16.132 1.42143 15.1146 2.17157 14.3644C2.92172 13.6143 3.93913 13.1929 5 13.1929H8.5M14 20.1929V20.2029M14 17.1929C14.4483 17.1914 14.8832 17.0397 15.235 16.7618C15.5868 16.484 15.8352 16.0962 15.9406 15.6604C16.0459 15.2247 16.0019 14.7662 15.8158 14.3583C15.6297 13.9505 15.3122 13.6169 14.914 13.4109C14.5162 13.2071 14.0611 13.1439 13.6228 13.2316C13.1845 13.3193 12.7888 13.5527 12.5 13.8939M3 5.19287C3 6.25374 3.42143 7.27115 4.17157 8.0213C4.92172 8.77144 5.93913 9.19287 7 9.19287C8.06087 9.19287 9.07828 8.77144 9.82843 8.0213C10.5786 7.27115 11 6.25374 11 5.19287C11 4.13201 10.5786 3.11459 9.82843 2.36444C9.07828 1.6143 8.06087 1.19287 7 1.19287C5.93913 1.19287 4.92172 1.6143 4.17157 2.36444C3.42143 3.11459 3 4.13201 3 5.19287Z" stroke="#4C4C4C" stroke-width="2" stroke-linecap="round" stroke-linejoin="round"/>
</svg>
