<svg width="45" height="45" viewBox="0 0 45 45" fill="none" xmlns="http://www.w3.org/2000/svg">
<path d="M32.9999 14.5922C33.4581 14.8528 33.8387 15.2308 34.1023 15.6873C34.366 16.1438 34.5032 16.6623 34.4999 17.1895V26.9015C34.4999 27.9801 33.9092 28.9748 32.9559 29.4988L23.9559 35.1921C23.5098 35.4371 23.009 35.5655 22.4999 35.5655C21.9909 35.5655 21.4901 35.4371 21.044 35.1921L12.044 29.4988C11.5776 29.2439 11.1882 28.8683 10.9165 28.4114C10.6449 27.9545 10.5011 27.433 10.5 26.9015V17.1882C10.5 16.1095 11.0907 15.1162 12.044 14.5922L21.044 9.28553C21.5033 9.03225 22.0194 8.89941 22.5439 8.89941C23.0685 8.89941 23.5846 9.03225 24.0439 9.28553L33.0439 14.5922H32.9999Z" fill="#FF8600"/>
<path d="M23.2274 16.2324C23.2274 15.8182 22.8916 15.4824 22.4774 15.4824C22.0632 15.4824 21.7274 15.8182 21.7274 16.2324L23.2274 16.2324ZM21.7274 28.2324C21.7274 28.6466 22.0632 28.9824 22.4774 28.9824C22.8916 28.9824 23.2274 28.6466 23.2274 28.2324H21.7274ZM24.4711 19.7131C24.5525 20.1193 24.9478 20.3825 25.3539 20.3011C25.76 20.2197 26.0233 19.8245 25.9419 19.4184L24.4711 19.7131ZM20.2327 24.7391C20.1444 24.3344 19.7447 24.078 19.34 24.1663C18.9353 24.2547 18.6789 24.6544 18.7673 25.0591L20.2327 24.7391ZM22.4774 21.3098C21.5354 21.3098 21.0485 21.1325 20.8039 20.9375C20.5979 20.7733 20.4566 20.509 20.4566 19.9858H18.9566C18.9566 20.7989 19.1932 21.5717 19.8688 22.1104C20.5058 22.6183 21.4043 22.8098 22.4774 22.8098V21.3098ZM20.4566 19.9858C20.4566 19.1558 21.2627 18.316 22.4774 18.316V16.816C20.6316 16.816 18.9566 18.143 18.9566 19.9858H20.4566ZM24.75 24.4796C24.75 25.1184 24.5154 25.488 24.1801 25.7264C23.8068 25.9918 23.2256 26.1493 22.4774 26.1493V27.6493C23.3985 27.6493 24.3286 27.4612 25.0493 26.9489C25.808 26.4095 26.25 25.5691 26.25 24.4796H24.75ZM22.4774 22.8098C23.427 22.8098 23.979 22.9782 24.286 23.2153C24.5498 23.4188 24.75 23.7664 24.75 24.4796H26.25C26.25 23.4644 25.9465 22.6021 25.2026 22.0279C24.5022 21.4871 23.5429 21.3098 22.4774 21.3098V22.8098ZM23.2274 17.566L23.2274 16.2324L21.7274 16.2324L21.7274 17.566L23.2274 17.566ZM21.7274 26.8993V28.2324H23.2274V26.8993H21.7274ZM22.4774 18.316C23.5512 18.316 24.3257 18.9874 24.4711 19.7131L25.9419 19.4184C25.632 17.8717 24.136 16.816 22.4774 16.816V18.316ZM22.4774 26.1493C21.2299 26.1493 20.3846 25.4345 20.2327 24.7391L18.7673 25.0591C19.1117 26.6366 20.7436 27.6493 22.4774 27.6493V26.1493Z" fill="white"/>
</svg>
