<svg width="44" height="45" viewBox="0 0 44 45" fill="none" xmlns="http://www.w3.org/2000/svg">
<path d="M32.4999 14.5922C32.9581 14.8528 33.3387 15.2308 33.6023 15.6873C33.866 16.1438 34.0032 16.6623 33.9999 17.1895V26.9015C33.9999 27.9801 33.4092 28.9748 32.4559 29.4988L23.4559 35.1921C23.0098 35.4371 22.509 35.5655 21.9999 35.5655C21.4909 35.5655 20.9901 35.4371 20.544 35.1921L11.544 29.4988C11.0776 29.2439 10.6882 28.8683 10.4165 28.4114C10.1449 27.9545 10.0011 27.433 10 26.9015V17.1882C10 16.1095 10.5907 15.1162 11.544 14.5922L20.544 9.28553C21.0033 9.03225 21.5194 8.89941 22.0439 8.89941C22.5685 8.89941 23.0846 9.03225 23.5439 9.28553L32.5439 14.5922H32.4999Z" stroke="white" stroke-width="2" stroke-linecap="round" stroke-linejoin="round"/>
<path d="M22.7274 16.2324C22.7274 15.8182 22.3916 15.4824 21.9774 15.4824C21.5632 15.4824 21.2274 15.8182 21.2274 16.2324L22.7274 16.2324ZM21.2274 28.2324C21.2274 28.6466 21.5632 28.9824 21.9774 28.9824C22.3916 28.9824 22.7274 28.6466 22.7274 28.2324H21.2274ZM23.9711 19.7131C24.0525 20.1193 24.4478 20.3825 24.8539 20.3011C25.26 20.2197 25.5233 19.8245 25.4419 19.4184L23.9711 19.7131ZM19.7327 24.7391C19.6444 24.3344 19.2447 24.078 18.84 24.1663C18.4353 24.2547 18.1789 24.6544 18.2673 25.0591L19.7327 24.7391ZM21.9774 21.3098C21.0354 21.3098 20.5485 21.1325 20.3039 20.9375C20.0979 20.7733 19.9566 20.509 19.9566 19.9858H18.4566C18.4566 20.7989 18.6932 21.5717 19.3688 22.1104C20.0058 22.6183 20.9043 22.8098 21.9774 22.8098V21.3098ZM19.9566 19.9858C19.9566 19.1558 20.7627 18.316 21.9774 18.316V16.816C20.1316 16.816 18.4566 18.143 18.4566 19.9858H19.9566ZM24.25 24.4796C24.25 25.1184 24.0154 25.488 23.6801 25.7264C23.3068 25.9918 22.7256 26.1493 21.9774 26.1493V27.6493C22.8985 27.6493 23.8286 27.4612 24.5493 26.9489C25.308 26.4095 25.75 25.5691 25.75 24.4796H24.25ZM21.9774 22.8098C22.927 22.8098 23.479 22.9782 23.786 23.2153C24.0498 23.4188 24.25 23.7664 24.25 24.4796H25.75C25.75 23.4644 25.4465 22.6021 24.7026 22.0279C24.0022 21.4871 23.0429 21.3098 21.9774 21.3098V22.8098ZM22.7274 17.566L22.7274 16.2324L21.2274 16.2324L21.2274 17.566L22.7274 17.566ZM21.2274 26.8993V28.2324H22.7274V26.8993H21.2274ZM21.9774 18.316C23.0512 18.316 23.8257 18.9874 23.9711 19.7131L25.4419 19.4184C25.132 17.8717 23.636 16.816 21.9774 16.816V18.316ZM21.9774 26.1493C20.7299 26.1493 19.8846 25.4345 19.7327 24.7391L18.2673 25.0591C18.6117 26.6366 20.2436 27.6493 21.9774 27.6493V26.1493Z" fill="#FF8600"/>
</svg>
