<svg width="21" height="21" viewBox="0 0 21 21" fill="none" xmlns="http://www.w3.org/2000/svg">
<path d="M9.24541 3.01475C9.67141 1.25875 12.1694 1.25875 12.5954 3.01475C12.6593 3.27855 12.7846 3.52353 12.9611 3.72975C13.1376 3.93597 13.3603 4.09761 13.6111 4.2015C13.8618 4.30539 14.1336 4.3486 14.4042 4.32762C14.6748 4.30664 14.9367 4.22206 15.1684 4.08075C16.7114 3.14075 18.4784 4.90675 17.5384 6.45075C17.3973 6.68241 17.3129 6.94409 17.2919 7.21453C17.271 7.48496 17.3142 7.75652 17.4179 8.00713C17.5217 8.25774 17.6831 8.48033 17.8891 8.65681C18.0951 8.83328 18.3398 8.95866 18.6034 9.02275C20.3594 9.44875 20.3594 11.9468 18.6034 12.3728C18.3396 12.4367 18.0946 12.562 17.8884 12.7385C17.6822 12.915 17.5206 13.1376 17.4167 13.3884C17.3128 13.6392 17.2696 13.9109 17.2905 14.1815C17.3115 14.4522 17.3961 14.714 17.5374 14.9458C18.4774 16.4888 16.7114 18.2558 15.1674 17.3158C14.9358 17.1747 14.6741 17.0902 14.4036 17.0693C14.1332 17.0483 13.8616 17.0915 13.611 17.1953C13.3604 17.2991 13.1378 17.4605 12.9614 17.6665C12.7849 17.8725 12.6595 18.1172 12.5954 18.3808C12.1694 20.1368 9.67141 20.1368 9.24541 18.3808C9.18149 18.117 9.05619 17.872 8.8797 17.6658C8.70321 17.4595 8.48052 17.2979 8.22976 17.194C7.979 17.0901 7.70724 17.0469 7.43662 17.0679C7.166 17.0889 6.90416 17.1735 6.67241 17.3148C5.12941 18.2548 3.36241 16.4888 4.30241 14.9448C4.44351 14.7131 4.52796 14.4514 4.54889 14.181C4.56983 13.9105 4.52665 13.639 4.42288 13.3884C4.31911 13.1378 4.15767 12.9152 3.95168 12.7387C3.7457 12.5622 3.50097 12.4368 3.23741 12.3728C1.48141 11.9468 1.48141 9.44875 3.23741 9.02275C3.50121 8.95884 3.74619 8.83353 3.95241 8.65704C4.15863 8.48055 4.32026 8.25786 4.42416 8.0071C4.52805 7.75634 4.57126 7.48459 4.55028 7.21397C4.5293 6.94335 4.44471 6.68151 4.30341 6.44975C3.36341 4.90675 5.12941 3.13975 6.67341 4.07975C7.67341 4.68775 8.96941 4.14975 9.24541 3.01475Z" stroke="#FF8600" stroke-width="2" stroke-linecap="round" stroke-linejoin="round"/>
<path d="M7.92041 10.6978C7.92041 11.4934 8.23648 12.2565 8.79909 12.8191C9.3617 13.3817 10.1248 13.6978 10.9204 13.6978C11.7161 13.6978 12.4791 13.3817 13.0417 12.8191C13.6043 12.2565 13.9204 11.4934 13.9204 10.6978C13.9204 9.9021 13.6043 9.13904 13.0417 8.57643C12.4791 8.01382 11.7161 7.69775 10.9204 7.69775C10.1248 7.69775 9.3617 8.01382 8.79909 8.57643C8.23648 9.13904 7.92041 9.9021 7.92041 10.6978Z" stroke="#FF8600" stroke-width="2" stroke-linecap="round" stroke-linejoin="round"/>
</svg>
